{
	"asset":{
		"generator":"Khronos glTF Blender I/O v3.5.30",
		"version":"2.0"
	},
	"scene":0,
	"scenes":[
		{
			"name":"Scene",
			"nodes":[
				0
			]
		}
	],
	"nodes":[
		{
			"mesh":0,
			"name":"Cube"
		}
	],
	"meshes":[
		{
			"name":"Cube.001",
			"primitives":[
				{
					"attributes":{
						"POSITION":0,
						"TEXCOORD_0":1,
						"NORMAL":2
					},
					"indices":3
				}
			]
		}
	],
	"accessors":[
		{
			"bufferView":0,
			"componentType":5126,
			"count":286,
			"max":[
				1.6231331825256348,
				1.0655122995376587,
				1
			],
			"min":[
				-1.0205397605895996,
				-1.1340231895446777,
				-1
			],
			"type":"VEC3"
		},
		{
			"bufferView":1,
			"componentType":5126,
			"count":286,
			"type":"VEC2"
		},
		{
			"bufferView":2,
			"componentType":5126,
			"count":286,
			"type":"VEC3"
		},
		{
			"bufferView":3,
			"componentType":5123,
			"count":498,
			"type":"SCALAR"
		}
	],
	"bufferViews":[
		{
			"buffer":0,
			"byteLength":3432,
			"byteOffset":0,
			"target":34962
		},
		{
			"buffer":0,
			"byteLength":2288,
			"byteOffset":3432,
			"target":34962
		},
		{
			"buffer":0,
			"byteLength":3432,
			"byteOffset":5720,
			"target":34962
		},
		{
			"buffer":0,
			"byteLength":996,
			"byteOffset":9152,
			"target":34963
		}
	],
	"buffers":[
		{
			"byteLength":10148,
			"uri":"data:application/octet-stream;base64,"
		}
	]
}
