{
	"asset":{
		"generator":"Khronos glTF Blender I/O v3.5.30",
		"version":"2.0"
	},
	"scene":0,
	"scenes":[
		{
			"name":"Scene",
			"nodes":[
				0
			]
		}
	],
	"nodes":[
		{
			"mesh":0,
			"name":"Cube"
		}
	],
	"meshes":[
		{
			"name":"Cube.001",
			"primitives":[
				{
					"attributes":{
						"POSITION":0,
						"TEXCOORD_0":1,
						"NORMAL":2
					},
					"indices":3
				}
			]
		}
	],
	"accessors":[
		{
			"bufferView":0,
			"componentType":5126,
			"count":1208,
			"max":[
				1.3972877264022827,
				0.9905577301979065,
				0.940246045589447
			],
			"min":[
				-0.8540372848510742,
				-1.0674498081207275,
				-0.940246045589447
			],
			"type":"VEC3"
		},
		{
			"bufferView":1,
			"componentType":5126,
			"count":1208,
			"type":"VEC2"
		},
		{
			"bufferView":2,
			"componentType":5126,
			"count":1208,
			"type":"VEC3"
		},
		{
			"bufferView":3,
			"componentType":5123,
			"count":1812,
			"type":"SCALAR"
		}
	],
	"bufferViews":[
		{
			"buffer":0,
			"byteLength":14496,
			"byteOffset":0,
			"target":34962
		},
		{
			"buffer":0,
			"byteLength":9664,
			"byteOffset":14496,
			"target":34962
		},
		{
			"buffer":0,
			"byteLength":14496,
			"byteOffset":24160,
			"target":34962
		},
		{
			"buffer":0,
			"byteLength":3624,
			"byteOffset":38656,
			"target":34963
		}
	],
	"buffers":[
		{
			"byteLength":42280,
			"uri":"data:application/octet-stream;base64,"
		}
	]
}
